<?xml version="1.0" encoding="utf-8"?>
<!-- Generator: Adobe Illustrator 15.1.0, SVG Export Plug-In . SVG Version: 6.00 Build 0)  -->
<!DOCTYPE svg PUBLIC "-//W3C//DTD SVG 1.1//EN" "http://www.w3.org/Graphics/SVG/1.1/DTD/svg11.dtd">
<svg version="1.1" id="Capa_1" xmlns="http://www.w3.org/2000/svg" xmlns:xlink="http://www.w3.org/1999/xlink" x="0px" y="0px"
	 width="442.584px" height="135.124px" viewBox="0 0 442.584 135.124" enable-background="new 0 0 442.584 135.124"
	 xml:space="preserve">
<g>
	<path fill="#39A9DC" d="M19.156,133.982H1.696l30.6-132.659h13.499l30.962,132.659H59.115l-8.458-37.081H27.616L19.156,133.982z
		 M39.136,47.401l-7.56,32.58h15.121L39.136,47.401z"/>
	<path fill="#39A9DC" d="M97.275,133.803H80.354V1.141h27.542c11.274,0,19.858,3.303,25.736,9.901
		c5.401,6.364,8.103,15.482,8.103,27.36c0,12.124-2.702,21.302-8.103,27.54c-5.757,6.721-14.338,10.081-25.736,10.081H97.275
		V133.803z M97.275,58.921h10.621c4.676,0,7.857-0.538,9.54-1.618c1.676-1.081,2.757-1.919,3.239-2.521
		c2.638-2.76,3.96-8.219,3.96-16.381c0-4.32-0.361-7.799-1.08-10.439c-0.719-2.639-1.772-4.681-3.153-6.121
		c-1.379-1.442-3.121-2.397-5.217-2.88c-2.103-0.479-4.532-0.719-7.289-0.719H97.275V58.921z"/>
	<path fill="#39A9DC" d="M166.392,133.803h-16.92V1.141h27.542c11.276,0,19.858,3.303,25.737,9.901c5.4,6.364,8.1,15.482,8.1,27.36
		c0,12.124-2.7,21.302-8.1,27.54c-5.758,6.721-14.339,10.081-25.737,10.081h-10.621V133.803z M166.392,58.921h10.621
		c4.677,0,7.857-0.538,9.54-1.618c1.677-1.081,2.758-1.919,3.238-2.521c2.639-2.76,3.962-8.219,3.962-16.381
		c0-4.32-0.361-7.799-1.081-10.439c-0.72-2.639-1.772-4.681-3.152-6.121c-1.381-1.442-3.121-2.397-5.219-2.88
		c-2.103-0.479-4.532-0.719-7.288-0.719h-10.621V58.921z"/>
	<path d="M267.549,67.563c0.72,0.719,1.198,1.321,1.44,1.799c5.158,6.241,7.742,15.361,7.742,27.359
		c0,12.121-2.584,21.181-7.742,27.18c-5.399,6.723-13.679,10.08-24.841,10.08h-8.639H218.59v-16.919V1.323h25.558
		c11.279,0,19.559,3.36,24.841,10.08c5.158,6.003,7.742,15.061,7.742,27.18c0,12.002-2.584,21.122-7.742,27.359
		C268.747,66.303,268.269,66.843,267.549,67.563z M235.51,59.103h8.639c3.841,0,6.599-0.451,8.28-1.352
		c1.681-0.899,2.819-1.767,3.422-2.609c2.519-2.998,3.778-8.519,3.778-16.559c0-4.68-0.392-8.37-1.17-11.071
		c-0.781-2.699-1.861-4.739-3.239-6.119c-1.383-1.378-3.031-2.251-4.949-2.61c-1.923-0.361-3.962-0.54-6.122-0.54h-8.639V59.103z
		 M244.148,117.063c2.16,0,4.199-0.181,6.122-0.541c1.918-0.361,3.566-1.229,4.949-2.61c1.378-1.377,2.458-3.419,3.239-6.118
		c0.778-2.702,1.17-6.391,1.17-11.072c0-4.8-0.422-8.578-1.26-11.341c-0.84-2.757-1.95-4.829-3.329-6.209
		c-1.383-1.377-3.003-2.25-4.861-2.609c-1.861-0.361-3.87-0.541-6.03-0.541h-8.639v41.04H244.148z"/>
	<path d="M317.767,133.803c-6.36,0-11.459-1.14-15.297-3.422c-3.845-2.278-6.722-4.619-8.641-7.02
		c-5.041-6.479-7.561-15.596-7.561-27.359V38.942c0-11.758,2.52-20.88,7.561-27.359c0.958-1.198,2.128-2.4,3.509-3.601
		c1.38-1.198,3.059-2.309,5.041-3.331c1.979-1.016,4.23-1.858,6.749-2.521c2.521-0.657,5.4-0.99,8.639-0.99
		c6.481,0,11.613,1.145,15.391,3.422c3.78,2.28,6.631,4.62,8.552,7.02c5.038,6.479,7.56,15.601,7.56,27.359v57.059
		c0,11.764-2.521,20.88-7.56,27.359c-1.921,2.401-4.771,4.742-8.552,7.02C329.38,132.663,324.248,133.803,317.767,133.803z
		 M317.767,18.243c-1.32,0-2.787,0.121-4.408,0.359c-1.621,0.243-3.212,0.99-4.771,2.25c-1.562,1.26-2.854,3.303-3.868,6.119
		c-1.021,2.821-1.531,6.813-1.531,11.971v57.059c0,5.283,0.51,9.333,1.531,12.15c1.015,2.823,2.307,4.859,3.868,6.119
		c1.559,1.26,3.149,2.013,4.771,2.251c1.621,0.243,3.088,0.36,4.408,0.36c1.2,0,2.64-0.117,4.319-0.36
		c1.681-0.238,3.301-0.991,4.863-2.251c1.558-1.26,2.848-3.296,3.868-6.119c1.021-2.817,1.53-6.867,1.53-12.15V38.942
		c0-5.158-0.51-9.15-1.53-11.971c-1.021-2.816-2.311-4.859-3.868-6.119c-1.563-1.26-3.183-2.007-4.863-2.25
		C320.406,18.364,318.967,18.243,317.767,18.243z"/>
	<path d="M409.386,67.563l31.142,66.419h-18.72l-21.777-46.44l-21.963,46.44h-18.899l31.321-66.419l-30.783-66.24h18.902
		l21.422,46.261l21.956-46.261h18.902L409.386,67.563z"/>
</g>
</svg>
